<mxfile host="app.diagrams.net" agent="Mozilla/5.0 (Windows NT 10.0; Win64; x64) AppleWebKit/537.36 (KHTML, like Gecko) Chrome/135.0.0.0 Safari/537.36 Edg/135.0.0.0" version="26.2.3" pages="2">
  <diagram name="MVVM" id="bW5_YRZiVKs5ytr1Vp4X">
    <mxGraphModel dx="1246" dy="668" grid="1" gridSize="10" guides="1" tooltips="1" connect="1" arrows="1" fold="1" page="1" pageScale="1" pageWidth="827" pageHeight="1169" math="0" shadow="0">
      <root>
        <mxCell id="0" />
        <mxCell id="1" parent="0" />
        <mxCell id="0vkXA6qhTI2fCbm87giS-1" value="" style="rounded=0;whiteSpace=wrap;html=1;" vertex="1" parent="1">
          <mxGeometry x="80" y="80" width="560" height="520" as="geometry" />
        </mxCell>
        <mxCell id="0vkXA6qhTI2fCbm87giS-2" value="" style="rounded=0;whiteSpace=wrap;html=1;" vertex="1" parent="1">
          <mxGeometry x="80" y="80" width="560" height="120" as="geometry" />
        </mxCell>
        <mxCell id="0vkXA6qhTI2fCbm87giS-3" value="" style="rounded=1;whiteSpace=wrap;html=1;" vertex="1" parent="1">
          <mxGeometry x="80" y="200" width="560" height="400" as="geometry" />
        </mxCell>
        <mxCell id="0vkXA6qhTI2fCbm87giS-4" value="" style="rounded=0;whiteSpace=wrap;html=1;" vertex="1" parent="1">
          <mxGeometry x="640" y="80" width="160" height="520" as="geometry" />
        </mxCell>
        <mxCell id="0vkXA6qhTI2fCbm87giS-5" value="StatsViewModel" style="text;html=1;align=center;verticalAlign=middle;whiteSpace=wrap;rounded=0;" vertex="1" parent="1">
          <mxGeometry x="330" y="125" width="60" height="30" as="geometry" />
        </mxCell>
        <mxCell id="0vkXA6qhTI2fCbm87giS-6" value="PropertyPane" style="text;html=1;align=center;verticalAlign=middle;whiteSpace=wrap;rounded=0;" vertex="1" parent="1">
          <mxGeometry x="690" y="325" width="60" height="30" as="geometry" />
        </mxCell>
        <mxCell id="0vkXA6qhTI2fCbm87giS-7" value="RenderPanel" style="text;html=1;align=center;verticalAlign=middle;whiteSpace=wrap;rounded=0;" vertex="1" parent="1">
          <mxGeometry x="320" y="385" width="60" height="30" as="geometry" />
        </mxCell>
      </root>
    </mxGraphModel>
  </diagram>
  <diagram id="uuBt9mYDBddwOTlR3y--" name="ClassDiagram">
    <mxGraphModel dx="1246" dy="668" grid="1" gridSize="10" guides="1" tooltips="1" connect="1" arrows="1" fold="1" page="1" pageScale="1" pageWidth="827" pageHeight="1169" math="0" shadow="0">
      <root>
        <mxCell id="0" />
        <mxCell id="1" parent="0" />
        <mxCell id="Fmegy12FGdHHjAv0wMwE-2" value="&lt;span style=&quot;font-weight: 400;&quot;&gt;GridViewModel&lt;/span&gt;" style="swimlane;fontStyle=1;align=center;verticalAlign=middle;childLayout=stackLayout;horizontal=1;startSize=29;horizontalStack=0;resizeParent=1;resizeParentMax=0;resizeLast=0;collapsible=0;marginBottom=0;html=1;whiteSpace=wrap;" vertex="1" parent="1">
          <mxGeometry x="50" y="165" width="140" height="104" as="geometry" />
        </mxCell>
        <mxCell id="Fmegy12FGdHHjAv0wMwE-6" value="StatsViewModel" style="text;html=1;strokeColor=none;fillColor=none;align=left;verticalAlign=middle;spacingLeft=4;spacingRight=4;overflow=hidden;rotatable=0;points=[[0,0.5],[1,0.5]];portConstraint=eastwest;whiteSpace=wrap;" vertex="1" parent="Fmegy12FGdHHjAv0wMwE-2">
          <mxGeometry y="29" width="140" height="25" as="geometry" />
        </mxCell>
        <mxCell id="Fmegy12FGdHHjAv0wMwE-5" value="PropertyPaneViewModel" style="text;html=1;strokeColor=none;fillColor=none;align=left;verticalAlign=middle;spacingLeft=4;spacingRight=4;overflow=hidden;rotatable=0;points=[[0,0.5],[1,0.5]];portConstraint=eastwest;whiteSpace=wrap;" vertex="1" parent="Fmegy12FGdHHjAv0wMwE-2">
          <mxGeometry y="54" width="140" height="25" as="geometry" />
        </mxCell>
        <mxCell id="Fmegy12FGdHHjAv0wMwE-4" value="RenderingPanel" style="text;html=1;strokeColor=none;fillColor=none;align=left;verticalAlign=middle;spacingLeft=4;spacingRight=4;overflow=hidden;rotatable=0;points=[[0,0.5],[1,0.5]];portConstraint=eastwest;whiteSpace=wrap;" vertex="1" parent="Fmegy12FGdHHjAv0wMwE-2">
          <mxGeometry y="79" width="140" height="25" as="geometry" />
        </mxCell>
        <mxCell id="Fmegy12FGdHHjAv0wMwE-7" value="&lt;span style=&quot;font-weight: 400; text-align: left;&quot;&gt;StatsViewModel&lt;/span&gt;" style="swimlane;fontStyle=1;align=center;verticalAlign=middle;childLayout=stackLayout;horizontal=1;startSize=29;horizontalStack=0;resizeParent=1;resizeParentMax=0;resizeLast=0;collapsible=0;marginBottom=0;html=1;whiteSpace=wrap;" vertex="1" parent="1">
          <mxGeometry x="550" y="179.5" width="140" height="54" as="geometry" />
        </mxCell>
        <mxCell id="Fmegy12FGdHHjAv0wMwE-9" value="IStatsService" style="text;html=1;strokeColor=none;fillColor=none;align=left;verticalAlign=middle;spacingLeft=4;spacingRight=4;overflow=hidden;rotatable=0;points=[[0,0.5],[1,0.5]];portConstraint=eastwest;whiteSpace=wrap;" vertex="1" parent="Fmegy12FGdHHjAv0wMwE-7">
          <mxGeometry y="29" width="140" height="25" as="geometry" />
        </mxCell>
        <mxCell id="Fmegy12FGdHHjAv0wMwE-10" value="IGraphicsElement" style="swimlane;fontStyle=1;align=center;verticalAlign=middle;childLayout=stackLayout;horizontal=1;startSize=29;horizontalStack=0;resizeParent=1;resizeParentMax=0;resizeLast=0;collapsible=0;marginBottom=0;html=1;whiteSpace=wrap;" vertex="1" parent="1">
          <mxGeometry x="520" y="290" width="140" height="54" as="geometry" />
        </mxCell>
        <mxCell id="Fmegy12FGdHHjAv0wMwE-20" style="edgeStyle=orthogonalEdgeStyle;rounded=0;orthogonalLoop=1;jettySize=auto;html=1;" edge="1" parent="1" source="Fmegy12FGdHHjAv0wMwE-13" target="Fmegy12FGdHHjAv0wMwE-17">
          <mxGeometry relative="1" as="geometry" />
        </mxCell>
        <mxCell id="Fmegy12FGdHHjAv0wMwE-13" value="GridRenderingService" style="swimlane;fontStyle=1;align=center;verticalAlign=middle;childLayout=stackLayout;horizontal=1;startSize=29;horizontalStack=0;resizeParent=1;resizeParentMax=0;resizeLast=0;collapsible=0;marginBottom=0;html=1;whiteSpace=wrap;" vertex="1" parent="1">
          <mxGeometry x="390" y="470" width="140" height="54" as="geometry" />
        </mxCell>
        <mxCell id="Fmegy12FGdHHjAv0wMwE-15" value="PrepareModel()" style="text;html=1;strokeColor=none;fillColor=none;align=left;verticalAlign=middle;spacingLeft=4;spacingRight=4;overflow=hidden;rotatable=0;points=[[0,0.5],[1,0.5]];portConstraint=eastwest;whiteSpace=wrap;" vertex="1" parent="Fmegy12FGdHHjAv0wMwE-13">
          <mxGeometry y="29" width="140" height="25" as="geometry" />
        </mxCell>
        <mxCell id="Fmegy12FGdHHjAv0wMwE-16" style="edgeStyle=orthogonalEdgeStyle;rounded=0;orthogonalLoop=1;jettySize=auto;html=1;" edge="1" parent="1" source="Fmegy12FGdHHjAv0wMwE-15" target="Fmegy12FGdHHjAv0wMwE-10">
          <mxGeometry relative="1" as="geometry" />
        </mxCell>
        <mxCell id="Fmegy12FGdHHjAv0wMwE-17" value="GridModel" style="swimlane;fontStyle=1;align=center;verticalAlign=middle;childLayout=stackLayout;horizontal=1;startSize=29;horizontalStack=0;resizeParent=1;resizeParentMax=0;resizeLast=0;collapsible=0;marginBottom=0;html=1;whiteSpace=wrap;" vertex="1" parent="1">
          <mxGeometry x="140" y="540" width="140" height="54" as="geometry" />
        </mxCell>
        <mxCell id="Fmegy12FGdHHjAv0wMwE-21" style="edgeStyle=orthogonalEdgeStyle;rounded=0;orthogonalLoop=1;jettySize=auto;html=1;" edge="1" parent="1" source="Fmegy12FGdHHjAv0wMwE-9" target="Fmegy12FGdHHjAv0wMwE-17">
          <mxGeometry relative="1" as="geometry" />
        </mxCell>
        <mxCell id="Fmegy12FGdHHjAv0wMwE-22" style="edgeStyle=orthogonalEdgeStyle;rounded=0;orthogonalLoop=1;jettySize=auto;html=1;" edge="1" parent="1" source="Fmegy12FGdHHjAv0wMwE-6" target="Fmegy12FGdHHjAv0wMwE-7">
          <mxGeometry relative="1" as="geometry" />
        </mxCell>
        <mxCell id="Fmegy12FGdHHjAv0wMwE-23" style="edgeStyle=orthogonalEdgeStyle;rounded=0;orthogonalLoop=1;jettySize=auto;html=1;" edge="1" parent="1" source="Fmegy12FGdHHjAv0wMwE-4" target="Fmegy12FGdHHjAv0wMwE-10">
          <mxGeometry relative="1" as="geometry" />
        </mxCell>
      </root>
    </mxGraphModel>
  </diagram>
</mxfile>
